<?xml version="1.0" standalone="no"?>
<!DOCTYPE svg PUBLIC "-//W3C//DTD SVG 20010904//EN"
 "http://www.w3.org/TR/2001/REC-SVG-20010904/DTD/svg10.dtd">
<svg version="1.0" xmlns="http://www.w3.org/2000/svg"
 width="512.000000pt" height="512.000000pt" viewBox="0 0 512.000000 512.000000"
 preserveAspectRatio="xMidYMid meet">
<metadata>
Created by potrace 1.16, written by Peter Selinger 2001-2019
</metadata>
<g transform="translate(0.000000,512.000000) scale(0.100000,-0.100000)"
fill="#fdfdfd" stroke="none">
<path d="M2072 4798 c-29 -178 -55 -330 -58 -338 -2 -9 -41 -27 -91 -44 -49
-15 -138 -52 -200 -81 l-111 -53 -279 199 -278 199 -307 -307 c-169 -169 -304
-312 -300 -317 3 -6 92 -132 198 -279 l192 -269 -53 -111 c-29 -62 -66 -150
-81 -197 -16 -47 -32 -88 -37 -91 -5 -3 -157 -30 -338 -60 l-329 -54 0 -435 0
-435 329 -54 c181 -30 333 -57 338 -60 5 -3 21 -44 37 -91 15 -47 52 -135 81
-197 l53 -111 -192 -269 c-106 -147 -195 -273 -198 -279 -4 -5 131 -148 300
-317 l307 -307 278 199 279 199 111 -53 c62 -29 151 -66 200 -81 50 -17 89
-35 91 -44 3 -8 29 -160 58 -337 l53 -323 435 0 435 0 53 322 c29 178 55 330
58 338 2 9 40 27 91 44 49 15 138 52 200 81 l111 53 279 -199 278 -199 307
307 c169 169 304 312 300 317 -3 6 -92 132 -198 279 l-192 269 53 111 c29 62
66 150 81 197 16 47 32 87 35 90 4 3 156 30 338 60 l331 54 0 436 0 436 -331
54 c-182 30 -334 57 -338 60 -3 3 -19 43 -35 90 -15 47 -52 135 -81 197 l-53
111 192 269 c106 147 195 273 198 279 4 5 -131 148 -300 317 l-307 307 -278
-199 -279 -199 -111 53 c-62 29 -150 66 -197 81 -47 16 -87 32 -90 35 -3 4
-30 156 -60 338 l-54 331 -436 0 -435 0 -53 -322z m661 -10 c3 -13 27 -152 53
-310 l47 -287 76 -17 c173 -38 368 -118 527 -215 82 -51 84 -51 109 -35 15 10
130 92 257 183 l231 165 119 -120 120 -119 -165 -231 c-91 -127 -173 -242
-182 -256 -17 -25 -16 -28 39 -120 101 -170 171 -343 211 -522 l16 -71 287
-47 c158 -26 297 -50 310 -53 22 -5 22 -7 22 -173 0 -166 0 -168 -22 -173 -13
-3 -152 -27 -310 -53 l-287 -47 -17 -76 c-22 -98 -86 -286 -126 -365 -16 -33
-55 -103 -85 -154 -54 -90 -55 -93 -38 -118 9 -14 91 -129 182 -256 l165 -231
-120 -119 -119 -120 -231 165 c-127 91 -242 173 -256 182 -25 17 -28 16 -120
-39 -166 -99 -347 -173 -517 -210 l-76 -17 -47 -287 c-26 -158 -50 -297 -53
-309 -5 -23 -7 -23 -173 -23 -166 0 -168 0 -173 23 -3 12 -27 151 -53 309
l-47 287 -76 17 c-98 21 -286 86 -365 126 -33 16 -103 55 -154 85 -90 54 -93
55 -118 38 -14 -9 -129 -91 -256 -182 l-231 -165 -119 120 -120 119 165 231
c91 127 173 242 182 256 17 25 16 28 -39 120 -101 169 -172 345 -210 517 l-17
76 -287 47 c-158 26 -297 50 -309 53 -23 5 -23 7 -23 173 0 166 0 168 23 173
12 3 151 27 309 53 l287 47 17 76 c21 98 86 286 126 365 16 33 55 103 85 154
54 90 55 93 38 118 -9 14 -91 129 -182 256 l-165 231 120 119 119 120 231
-165 c127 -91 242 -173 256 -182 25 -17 28 -16 120 39 169 101 343 172 519
211 l74 16 47 287 c26 158 50 297 53 310 5 22 7 22 173 22 166 0 168 0 173
-22z"/>
<path d="M2326 3824 c-160 -29 -342 -104 -491 -202 -91 -61 -278 -248 -338
-338 -149 -227 -217 -453 -217 -724 0 -272 68 -497 217 -723 61 -92 247 -279
338 -339 228 -150 453 -218 725 -218 272 0 497 68 723 217 92 61 279 247 339
338 150 228 218 453 218 725 0 271 -67 496 -218 725 -60 91 -247 278 -339 338
-155 102 -327 172 -500 202 -108 19 -350 18 -457 -1z m497 -328 c328 -98 572
-342 674 -673 25 -81 27 -101 27 -263 0 -163 -2 -181 -28 -264 -15 -50 -47
-128 -71 -175 -43 -83 -140 -221 -160 -228 -6 -1 -25 24 -43 57 -44 80 -118
168 -190 225 l-60 46 33 49 c78 115 106 284 70 420 -74 284 -356 453 -644 385
-137 -33 -273 -137 -338 -260 -91 -174 -83 -389 22 -545 l33 -49 -60 -46 c-72
-57 -146 -145 -190 -225 -18 -33 -37 -58 -43 -57 -20 7 -117 145 -160 228 -24
47 -56 125 -71 175 -26 83 -28 101 -28 264 0 162 2 182 27 263 110 358 382
609 748 692 45 10 108 14 214 11 127 -3 164 -8 238 -30z m-185 -732 c81 -33
142 -121 142 -204 0 -114 -106 -220 -220 -220 -113 0 -219 105 -220 218 -1
150 162 263 298 206z m4 -745 c133 -28 252 -119 315 -241 18 -35 33 -69 33
-75 0 -18 -64 -48 -167 -80 -81 -25 -101 -27 -263 -27 -162 0 -182 2 -263 27
-103 32 -167 62 -167 80 0 6 15 40 33 75 93 179 292 280 479 241z"/>
</g>
</svg>
